# xmcd
#
# Track frame offsets: 
#        150
#        17210
#        35997
#        53531
#        70637
#        89740
#        107414
#        130459
#        152134
#        175284
#        187620
#        207038
#        228503
#        244806
#        261155
#        276333
#        292059
#        306647
#
# Disc length: 4320 seconds
#
# Revision: 5
# Processed by: cddbd v1.5.2PL0 Copyright (c) Steve Scherf et al.
# Submitted via: ExactAudioCopy v1.0b6
#
DISCID=0c10de12
DTITLE=Various Artist - Yellow Magic Kayoukyoku [CD 1)
DYEAR=2005
DGENRE=Synthpop
TTITLE0=Manna - Yellow Magic Carnival (Single Version)
TTITLE1=Haruo Chikada - Erekutorikku Rabu Stoorii (Electric Love Story
TTITLE1=)
TTITLE2=Sheena and The Rokkets - Yuu Mei Doriimu (You May Dream)
TTITLE3=Yuko Kanai - Chaina Roozu (China Rose)
TTITLE4=Yoshitaka Minami - Akogare No Rajio Gaaru (Radio Girl)
TTITLE5=Yoshitaka Minami - Yoru No Tsubasa
TTITLE6=Sandii - Idol Era
TTITLE7=Taeko Ohnuki - Carnaval
TTITLE8=Susan - Ah! Soka
TTITLE9=Sheena and The Rokkets - Ukabi No Piichi Gaaru (Peach Girl)
TTITLE10=Rajie - Rajio (Radio) To Futari
TTITLE11=Rajie - Apartoman (Apartment)
TTITLE12=Akiko Yano - Harusaki Kobeni
TTITLE13=Imo-Kin Trio - Haisukuuru Rarabai (High School Lullaby)
TTITLE14=Yuko Sakaitsukasa - Conpyuutaa (Computer) Obaachan
TTITLE15=Tsukasa Ito - Koi Wa Runrun
TTITLE16=Imo-Kin Trio - Teiadoroppu (Teardrop) Tanteidan
TTITLE17=Rie Nakahara - Puritti Booi (Pretty Boy)... Dai.Jou.Bu
EXTD=YEAR: 2005
EXTT0=
EXTT1=
EXTT2=
EXTT3=
EXTT4=
EXTT5=
EXTT6=
EXTT7=
EXTT8=
EXTT9=
EXTT10=
EXTT11=
EXTT12=
EXTT13=
EXTT14=
EXTT15=
EXTT16=
EXTT17=
PLAYORDER=
